<svg xmlns="http://www.w3.org/2000/svg" xmlns:xlink="http://www.w3.org/1999/xlink"><defs><symbol viewBox="0 0 32 32" id="accessibility"><path d="M23 14V12H9V14H14V16.734L10.132 23.504L11.868 24.496L15.58 18H16.42L20.132 24.496L21.868 23.504L18 16.734V14H23Z" /><path d="M16 11C17.1046 11 18 10.1046 18 9C18 7.89543 17.1046 7 16 7C14.8954 7 14 7.89543 14 9C14 10.1046 14.8954 11 16 11Z" /><path d="M16 30C13.2311 30 10.5243 29.1789 8.22202 27.6406C5.91973 26.1022 4.12532 23.9157 3.06569 21.3576C2.00607 18.7994 1.72882 15.9845 2.26901 13.2687C2.80921 10.553 4.14258 8.05845 6.10051 6.10051C8.05845 4.14258 10.553 2.80921 13.2687 2.26901C15.9845 1.72882 18.7994 2.00607 21.3576 3.06569C23.9157 4.12532 26.1022 5.91973 27.6406 8.22202C29.1789 10.5243 30 13.2311 30 16C29.9958 19.7118 28.5195 23.2703 25.8949 25.8949C23.2703 28.5195 19.7118 29.9958 16 30ZM16 4.00001C13.6266 4.00001 11.3066 4.70379 9.33316 6.02237C7.35977 7.34095 5.8217 9.21509 4.91345 11.4078C4.0052 13.6005 3.76756 16.0133 4.23058 18.3411C4.69361 20.6689 5.83649 22.8071 7.51472 24.4853C9.19296 26.1635 11.3312 27.3064 13.6589 27.7694C15.9867 28.2325 18.3995 27.9948 20.5922 27.0866C22.7849 26.1783 24.6591 24.6402 25.9776 22.6668C27.2962 20.6935 28 18.3734 28 16C27.9964 12.8185 26.7309 9.76838 24.4813 7.51873C22.2316 5.26908 19.1815 4.00363 16 4.00001Z" /></symbol><symbol viewBox="0 0 32 32" id="add"><path d="M17 15V8H15V15H8V17H15V24H17V17H24V15H17Z" /></symbol><symbol viewBox="0 0 32 32" id="add-alt"><path d="M16 4C22.6 4 28 9.4 28 16C28 22.6 22.6 28 16 28C9.4 28 4 22.6 4 16C4 9.4 9.4 4 16 4ZM16 2C8.3 2 2 8.3 2 16C2 23.7 8.3 30 16 30C23.7 30 30 23.7 30 16C30 8.3 23.7 2 16 2Z" /><path d="M24 15H17V8H15V15H8V17H15V24H17V17H24V15Z" /></symbol><symbol viewBox="0 0 32 32" id="add-comment"><path d="M17.74 30L16 29L20 22H26C26.5304 22 27.0391 21.7893 27.4142 21.4142C27.7893 21.0391 28 20.5304 28 20V8C28 7.46957 27.7893 6.96086 27.4142 6.58579C27.0391 6.21071 26.5304 6 26 6H6C5.46957 6 4.96086 6.21071 4.58579 6.58579C4.21071 6.96086 4 7.46957 4 8V20C4 20.5304 4.21071 21.0391 4.58579 21.4142C4.96086 21.7893 5.46957 22 6 22H15V24H6C4.93913 24 3.92172 23.5786 3.17157 22.8284C2.42143 22.0783 2 21.0609 2 20V8C2 6.93913 2.42143 5.92172 3.17157 5.17157C3.92172 4.42143 4.93913 4 6 4H26C27.0609 4 28.0783 4.42143 28.8284 5.17157C29.5786 5.92172 30 6.93913 30 8V20C30 21.0609 29.5786 22.0783 28.8284 22.8284C28.0783 23.5786 27.0609 24 26 24H21.16L17.74 30Z" /><path d="M17 9H15V13H11V15H15V19H17V15H21V13H17V9Z" /></symbol><symbol viewBox="0 0 24 24" id="announcement"><circle cx="9" cy="9" r="4" /><path d="M9 15c-2.67 0-8 1.34-8 4v1c0 .55.45 1 1 1h14c.55 0 1-.45 1-1v-1c0-2.66-5.33-4-8-4zm6.47-7.23c.32.79.32 1.67 0 2.46-.19.47-.11 1 .25 1.36l.03.03c.58.58 1.57.46 1.95-.27.76-1.45.76-3.15-.02-4.66-.38-.74-1.38-.88-1.97-.29l-.01.01c-.34.35-.42.89-.23 1.36zm3.71-4.88c-.4.4-.46 1.02-.13 1.48 1.97 2.74 1.96 6.41-.03 9.25-.32.45-.25 1.07.14 1.46l.03.03c.49.49 1.32.45 1.74-.1 2.75-3.54 2.76-8.37 0-12.02-.42-.55-1.26-.59-1.75-.1z" /></symbol><symbol viewBox="0 0 32 32" id="arrow"><path d="M18 6L16.57 7.393L24.15 15H4V17H24.15L16.57 24.573L18 26L28 16L18 6Z" /></symbol><symbol viewBox="0 0 24 24" id="assignment"><path clip-rule="evenodd" d="M21.7424 8.34003C22.0891 8.6867 22.0891 9.24671 21.7424 9.59338L20.1157 11.2201L16.7823 7.88669L18.409 6.25999C18.5751 6.09354 18.8005 6 19.0357 6C19.2708 6 19.4963 6.09354 19.6624 6.25999L21.7424 8.34003ZM6 21.5579V18.8557C6 18.7312 6.04445 18.6246 6.13334 18.5357L15.8313 8.83772L19.1647 12.1711L9.45784 21.8691C9.37784 21.9579 9.26228 22.0024 9.14672 22.0024H6.44445C6.19556 22.0024 6 21.8068 6 21.5579Z" /><rect height="2" rx="1" width="15" x="3" y="3" /><rect height="2" rx="1" width="10" x="3" y="7" /><rect height="2" rx="1" width="7" x="3" y="11" /></symbol><symbol viewBox="0 0 18 18" id="attachment"><path d="M16.5625 10.8126L7.1875 1.43761C5.625 -0.187385 3.0625 -0.187385 1.4375 1.37511C-0.1875 2.93761 -0.1875 5.56261 1.4375 7.12511L1.5 7.18762L3.25 9.00012L4.125 8.12512L2.3125 6.31261C1.25 5.25011 1.25 3.43761 2.3125 2.37511C3.375 1.31261 5.1875 1.25011 6.25 2.31261C6.25 2.31261 6.25 2.31261 6.3125 2.37511L15.625 11.6876C16.75 12.7501 16.75 14.5626 15.6875 15.6251C14.625 16.7501 12.8125 16.7501 11.75 15.6876C11.75 15.6876 11.75 15.6876 11.6875 15.6251L7.0625 11.0001C6.4375 10.3751 6.5 9.37511 7.0625 8.81261C7.6875 8.25012 8.625 8.25012 9.25 8.81261L11.8125 11.3751L12.6875 10.5001L10.0625 7.87511C8.9375 6.81261 7.1875 6.87511 6.125 8.00011C5.125 9.06261 5.125 10.7501 6.125 11.8751L10.8125 16.5626C12.375 18.1876 14.9375 18.1876 16.5625 16.6251C18.1875 15.0626 18.1875 12.4376 16.5625 10.8126C16.5625 10.8751 16.5625 10.8126 16.5625 10.8126Z" /></symbol><symbol viewBox="0 0 16 16" id="building"><path d="M14 1H8C7.73486 1.00026 7.48066 1.10571 7.29319 1.29319C7.10571 1.48066 7.00026 1.73486 7 2V7H2C1.73486 7.00026 1.48066 7.10571 1.29319 7.29319C1.10571 7.48066 1.00026 7.73486 1 8V15H15V2C14.9997 1.73488 14.8942 1.4807 14.7068 1.29323C14.5193 1.10576 14.2651 1.0003 14 1V1ZM4.5 14V10.5H6.5V14H4.5ZM14 14H7.5V10C7.5 9.86739 7.44732 9.74021 7.35355 9.64645C7.25979 9.55268 7.13261 9.5 7 9.5H4C3.86739 9.5 3.74021 9.55268 3.64645 9.64645C3.55268 9.74021 3.5 9.86739 3.5 10V14H2V8H8V2H14V14Z" /><path d="M10 4H9V5H10V4Z" /><path d="M13 4H12V5H13V4Z" /><path d="M10 7H9V8H10V7Z" /><path d="M13 7H12V8H13V7Z" /><path d="M10 9.99976H9V10.9998H10V9.99976Z" /><path d="M13 9.99976H12V10.9998H13V9.99976Z" /></symbol><symbol viewBox="0 0 32 32" id="calendar"><path d="M26 4H22V2H20V4H12V2H10V4H6C4.9 4 4 4.9 4 6V26C4 27.1 4.9 28 6 28H26C27.1 28 28 27.1 28 26V6C28 4.9 27.1 4 26 4ZM26 26H6V12H26V26ZM26 10H6V6H10V8H12V6H20V8H22V6H26V10Z" /></symbol><symbol viewBox="0 0 32 32" id="check"><path d="M13 24L4 15L5.414 13.586L13 21.171L26.586 7.586L28 9L13 24Z" /></symbol><symbol viewBox="0 0 32 32" id="chevron"><path d="M22.0001 16L12.0001 26L10.6001 24.6L19.2001 16L10.6001 7.4L12.0001 6L22.0001 16Z" /></symbol><symbol viewBox="0 0 32 32" id="close"><path d="M24 9.4L22.6 8L16 14.6L9.4 8L8 9.4L14.6 16L8 22.6L9.4 24L16 17.4L22.6 24L24 22.6L17.4 16L24 9.4Z" /></symbol><symbol viewBox="0 0 24 24" id="dashboard"><path d="M10 19v-5h4v5c0 .55.45 1 1 1h3c.55 0 1-.45 1-1v-7h1.7c.46 0 .68-.57.33-.87L12.67 3.6c-.38-.34-.96-.34-1.34 0l-8.36 7.53c-.34.3-.13.87.33.87H5v7c0 .55.45 1 1 1h3c.55 0 1-.45 1-1z" /></symbol><symbol viewBox="0 0 32 32" id="document-blank"><path d="M25.7 9.29999L18.7 2.29999C18.612 2.20227 18.5038 2.12483 18.383 2.07303C18.2621 2.02124 18.1314 1.99631 18 1.99999H8C7.47005 2.00155 6.96224 2.21276 6.58751 2.58749C6.21277 2.96223 6.00156 3.47003 6 3.99999V28C6.00156 28.5299 6.21277 29.0377 6.58751 29.4125C6.96224 29.7872 7.47005 29.9984 8 30H24C24.53 29.9984 25.0378 29.7872 25.4125 29.4125C25.7872 29.0377 25.9984 28.5299 26 28V9.99999C26.0037 9.86854 25.9788 9.73787 25.927 9.61701C25.8752 9.49614 25.7977 9.38798 25.7 9.29999ZM18 4.39999L23.6 9.99999H18V4.39999ZM24 28H8V3.99999H16V9.99999C16.0016 10.5299 16.2128 11.0377 16.5875 11.4125C16.9622 11.7872 17.47 11.9984 18 12H24V28Z" /></symbol><symbol viewBox="0 0 32 32" id="download"><path d="M26 24V28H6V24H4V28C4 28.5304 4.21071 29.0391 4.58579 29.4142C4.96086 29.7893 5.46957 30 6 30H26C26.5304 30 27.0391 29.7893 27.4142 29.4142C27.7893 29.0391 28 28.5304 28 28V24H26Z" /><path d="M26 14L24.59 12.59L17 20.17V2H15V20.17L7.41 12.59L6 14L16 24L26 14Z" /></symbol><symbol viewBox="0 0 24 24" aria-hidden="true" role="presentation" id="edifycalendar"><path d="M16 13h-3c-.55 0-1 .45-1 1v3c0 .55.45 1 1 1h3c.55 0 1-.45 1-1v-3c0-.55-.45-1-1-1zm0-10v1H8V3c0-.55-.45-1-1-1s-1 .45-1 1v1H5c-1.11 0-1.99.9-1.99 2L3 20c0 1.1.89 2 2 2h14c1.1 0 2-.9 2-2V6c0-1.1-.9-2-2-2h-1V3c0-.55-.45-1-1-1s-1 .45-1 1zm2 17H6c-.55 0-1-.45-1-1V9h14v10c0 .55-.45 1-1 1z" /></symbol><symbol viewBox="0 0 32 32" id="edit"><path d="M30 26H2V28H30V26Z" /><path d="M25.4 9C26.2 8.2 26.2 7 25.4 6.2L21.8 2.6C21 1.8 19.8 1.8 19 2.6L4 17.6V24H10.4L25.4 9ZM20.4 4L24 7.6L21 10.6L17.4 7L20.4 4ZM6 22V18.4L16 8.4L19.6 12L9.6 22H6Z" /></symbol><symbol viewBox="0 0 32 32" id="edit-filter"><path d="M26 6H4V9.17L11.41 16.59L12 17.17V26H16V24H18V26C18 26.5304 17.7893 27.0391 17.4142 27.4142C17.0391 27.7893 16.5304 28 16 28H12C11.4696 28 10.9609 27.7893 10.5858 27.4142C10.2107 27.0391 10 26.5304 10 26V18L2.59 10.59C2.40283 10.4039 2.25434 10.1827 2.15308 9.93897C2.05182 9.69526 1.99979 9.43391 2 9.17V6C2 5.46957 2.21071 4.96086 2.58579 4.58579C2.96086 4.21071 3.46957 4 4 4H26V6Z" /><path d="M29.71 11.29L26.71 8.29C26.617 8.19627 26.5064 8.12188 26.3846 8.07111C26.2627 8.02034 26.132 7.9942 26 7.9942C25.868 7.9942 25.7373 8.02034 25.6154 8.07111C25.4936 8.12188 25.383 8.19627 25.29 8.29L16 17.59V22H20.41L29.71 12.71C29.8037 12.617 29.8781 12.5064 29.9289 12.3846C29.9797 12.2627 30.0058 12.132 30.0058 12C30.0058 11.868 29.9797 11.7373 29.9289 11.6154C29.8781 11.4936 29.8037 11.383 29.71 11.29ZM19.59 20H18V18.41L23 13.41L24.59 15L19.59 20ZM26 13.59L24.41 12L26 10.41L27.59 12L26 13.59Z" /></symbol><symbol viewBox="0 0 32 32" id="email"><path d="M28 6H4C3.46957 6 2.96086 6.21071 2.58579 6.58579C2.21071 6.96086 2 7.46957 2 8V24C2 24.5304 2.21071 25.0391 2.58579 25.4142C2.96086 25.7893 3.46957 26 4 26H28C28.5304 26 29.0391 25.7893 29.4142 25.4142C29.7893 25.0391 30 24.5304 30 24V8C30 7.46957 29.7893 6.96086 29.4142 6.58579C29.0391 6.21071 28.5304 6 28 6ZM25.8 8L16 14.78L6.2 8H25.8ZM4 24V8.91L15.43 16.82C15.5974 16.9361 15.7963 16.9984 16 16.9984C16.2037 16.9984 16.4026 16.9361 16.57 16.82L28 8.91V24H4Z" /></symbol><symbol viewBox="0 0 32 32" id="event"><path d="M28 6C28 5.46957 27.7893 4.96086 27.4142 4.58579C27.0391 4.21071 26.5304 4 26 4H22V2H20V4H12V2H10V4H6C5.46957 4 4.96086 4.21071 4.58579 4.58579C4.21071 4.96086 4 5.46957 4 6V26C4 26.5304 4.21071 27.0391 4.58579 27.4142C4.96086 27.7893 5.46957 28 6 28H10V26H6V6H10V8H12V6H20V8H22V6H26V12H28V6Z" /><path d="M21 15L23.549 19.938L29 20.729L25 24.573L26 30L21 27.438L16 30L17 24.573L13 20.729L18.6 19.938L21 15Z" /></symbol><symbol viewBox="0 0 32 32" id="external"><path d="M26 28H6C5.46979 27.9993 4.96149 27.7883 4.58658 27.4134C4.21166 27.0385 4.00071 26.5302 4 26V6C4.00071 5.46979 4.21166 4.96149 4.58658 4.58658C4.96149 4.21166 5.46979 4.00071 6 4H16V6H6V26H26V16H28V26C27.9993 26.5302 27.7883 27.0385 27.4134 27.4134C27.0385 27.7883 26.5302 27.9993 26 28Z" /><path d="M20 2V4H26.586L18 12.586L19.414 14L28 5.414V12H30V2H20Z" /></symbol><symbol viewBox="0 0 32 32" id="favorite"><path d="M22.4498 6C23.1779 5.99939 23.8987 6.14413 24.5701 6.42575C25.2416 6.70736 25.85 7.12018 26.3598 7.64C27.4102 8.70638 27.999 10.1432 27.999 11.64C27.999 13.1368 27.4102 14.5736 26.3598 15.64L15.9998 26.13L5.63978 15.64C4.58936 14.5736 4.00056 13.1368 4.00056 11.64C4.00056 10.1432 4.58936 8.70638 5.63978 7.64C6.14987 7.12055 6.75835 6.70795 7.42969 6.42629C8.10102 6.14464 8.82175 5.99957 9.54978 5.99957C10.2778 5.99957 10.9985 6.14464 11.6699 6.42629C12.3412 6.70795 12.9497 7.12055 13.4598 7.64L15.9998 10.24L18.5298 7.66C19.038 7.13399 19.6471 6.71586 20.3207 6.43064C20.9942 6.14542 21.7183 5.99895 22.4498 6ZM22.4498 4C21.4554 3.99916 20.4709 4.19686 19.5539 4.5815C18.6369 4.96615 17.806 5.53 17.1098 6.24L15.9998 7.36L14.8898 6.24C14.1927 5.53129 13.3616 4.96841 12.4448 4.58419C11.528 4.19997 10.5438 4.0021 9.54978 4.0021C8.55571 4.0021 7.57159 4.19997 6.65479 4.58419C5.73798 4.96841 4.90683 5.53129 4.20978 6.24C2.79165 7.68363 1.99707 9.62636 1.99707 11.65C1.99707 13.6736 2.79165 15.6164 4.20978 17.06L15.9998 29L27.7898 17.06C29.2079 15.6164 30.0025 13.6736 30.0025 11.65C30.0025 9.62636 29.2079 7.68363 27.7898 6.24C27.0929 5.53091 26.2618 4.96765 25.345 4.58306C24.4282 4.19848 23.444 4.00028 22.4498 4Z" /></symbol><symbol viewBox="0 0 32 32" id="file-anyfile"><path d="M25.7 9.3L18.7 2.3C18.612 2.20228 18.5038 2.12484 18.383 2.07304C18.2621 2.02124 18.1314 1.99632 18 2H8C7.47005 2.00155 6.96224 2.21277 6.58751 2.5875C6.21277 2.96224 6.00156 3.47004 6 4V28C6.00156 28.53 6.21277 29.0378 6.58751 29.4125C6.96224 29.7872 7.47005 29.9984 8 30H24C24.53 29.9984 25.0378 29.7872 25.4125 29.4125C25.7872 29.0378 25.9984 28.53 26 28V10C26.0037 9.86855 25.9788 9.73788 25.927 9.61702C25.8752 9.49615 25.7977 9.38799 25.7 9.3ZM18 4.4L23.6 10H18V4.4ZM24 28H8V4H16V10C16.0016 10.53 16.2128 11.0378 16.5875 11.4125C16.9622 11.7872 17.47 11.9984 18 12H24V28Z" /></symbol><symbol viewBox="0 0 32 32" id="file-doc"><path d="M27 26H22.5C22.1023 25.9996 21.721 25.8489 21.4398 25.5811C21.1586 25.3133 21.0005 24.9502 21 24.5714V17.4286C21.0004 17.0498 21.1586 16.6867 21.4398 16.4188C21.721 16.151 22.1023 16.0004 22.5 16H27V17.4286H22.5V24.5714H27V26Z" /><path d="M18 26H15C14.6023 25.9996 14.2211 25.8489 13.9398 25.5811C13.6586 25.3133 13.5005 24.9502 13.5 24.5714V17.4286C13.5004 17.0498 13.6586 16.6867 13.9398 16.4188C14.221 16.151 14.6023 16.0004 15 16H18C18.3977 16.0004 18.779 16.151 19.0602 16.4188C19.3414 16.6867 19.4996 17.0498 19.5 17.4286V24.5714C19.4995 24.9502 19.3414 25.3133 19.0602 25.5811C18.779 25.8489 18.3977 25.9996 18 26ZM15 17.4286V24.5714H18V17.4286H15Z" /><path d="M9 26H6V16H9C9.79538 16.0009 10.5579 16.3021 11.1203 16.8378C11.6827 17.3734 11.9991 18.0996 12 18.8571V23.1429C11.9991 23.9004 11.6827 24.6266 11.1203 25.1622C10.5579 25.6979 9.79538 25.9991 9 26ZM7.5 24.5714H9C9.3977 24.5711 9.779 24.4204 10.0602 24.1526C10.3414 23.8848 10.4996 23.5216 10.5 23.1429V18.8571C10.4996 18.4784 10.3414 18.1152 10.0602 17.8474C9.779 17.5796 9.3977 17.4289 9 17.4286H7.5V24.5714Z" /><path d="M22 14V10C22.0036 9.86857 21.9786 9.73792 21.9268 9.61708C21.875 9.49623 21.7976 9.38805 21.7 9.3L14.7 2.3C14.612 2.20233 14.5038 2.12492 14.3829 2.07313C14.2621 2.02133 14.1314 1.99638 14 2H4C3.47005 2.00156 2.96224 2.21277 2.58751 2.58751C2.21277 2.96224 2.00156 3.47005 2 4V28C2 28.5304 2.21071 29.0391 2.58579 29.4142C2.96086 29.7893 3.46957 30 4 30H20V28H4V4H12V10C12.0016 10.53 12.2128 11.0378 12.5875 11.4125C12.9622 11.7872 13.47 11.9984 14 12H20V14H22ZM14 10V4.4L19.6 10H14Z" /></symbol><symbol viewBox="0 0 32 32" id="file-pdf"><path d="M27 17.4286V16H21V26H22.5V21.7143H26.25V20.2857H22.5V17.4286H27Z" /><path d="M10.5 16H6V26H7.5V22.4286H10.5C10.8978 22.4286 11.2794 22.2781 11.5607 22.0102C11.842 21.7422 12 21.3789 12 21V17.4286C12 17.0497 11.842 16.6863 11.5607 16.4184C11.2794 16.1505 10.8978 16 10.5 16ZM10.5 21H7.5V17.4286H10.5V21Z" /><path d="M16.5 26H13.5V16H16.5C17.2956 16 18.0587 16.301 18.6213 16.8368C19.1839 17.3727 19.5 18.0994 19.5 18.8571V23.1429C19.5 23.9006 19.1839 24.6273 18.6213 25.1632C18.0587 25.699 17.2956 26 16.5 26ZM15 24.5714H16.5C16.8978 24.5714 17.2794 24.4209 17.5607 24.153C17.842 23.8851 18 23.5217 18 23.1429V18.8571C18 18.4783 17.842 18.1149 17.5607 17.847C17.2794 17.5791 16.8978 17.4286 16.5 17.4286H15V24.5714Z" /><path d="M22 14V10C22.0036 9.86857 21.9786 9.73792 21.9268 9.61708C21.875 9.49623 21.7976 9.38805 21.7 9.3L14.7 2.3C14.612 2.20233 14.5038 2.12492 14.3829 2.07313C14.2621 2.02133 14.1314 1.99638 14 2H4C3.47005 2.00156 2.96224 2.21277 2.58751 2.58751C2.21277 2.96224 2.00156 3.47005 2 4V28C2 28.5304 2.21071 29.0391 2.58579 29.4142C2.96086 29.7893 3.46957 30 4 30H20V28H4V4H12V10C12.0016 10.53 12.2128 11.0378 12.5875 11.4125C12.9622 11.7872 13.47 11.9984 14 12H20V14H22ZM14 10V4.4L19.6 10H14Z" /></symbol><symbol viewBox="0 0 32 32" id="file-ppt"><path d="M21 17.4286H23.25V26H24.75V17.4286H27V16H21V17.4286Z" /><path d="M15 26H13.5V16H18C18.3977 16.0004 18.779 16.151 19.0602 16.4188C19.3414 16.6867 19.4996 17.0498 19.5 17.4286V21C19.4996 21.3788 19.3414 21.7419 19.0602 22.0097C18.779 22.2776 18.3977 22.4282 18 22.4286H15V26ZM15 21H18V17.4275H15V21Z" /><path d="M7.5 26H6V16H10.5C10.8977 16.0004 11.279 16.151 11.5602 16.4188C11.8414 16.6867 11.9996 17.0498 12 17.4286V21C11.9996 21.3788 11.8414 21.7419 11.5602 22.0097C11.279 22.2776 10.8977 22.4282 10.5 22.4286H7.5V26ZM7.5 21H10.5V17.4275H7.5V21Z" /><path d="M22 14V10C22.0036 9.86857 21.9786 9.73792 21.9268 9.61708C21.875 9.49623 21.7976 9.38805 21.7 9.3L14.7 2.3C14.612 2.20233 14.5038 2.12492 14.3829 2.07313C14.2621 2.02133 14.1314 1.99638 14 2H4C3.47005 2.00156 2.96224 2.21277 2.58751 2.58751C2.21277 2.96224 2.00156 3.47005 2 4V28C2 28.5304 2.21071 29.0391 2.58579 29.4142C2.96086 29.7893 3.46957 30 4 30H20V28H4V4H12V10C12.0016 10.53 12.2128 11.0378 12.5875 11.4125C12.9622 11.7872 13.47 11.9984 14 12H20V14H22ZM14 10V4.4L19.6 10H14Z" /></symbol><symbol viewBox="0 0 32 32" id="file-xls"><path d="M24.5 26H20V24.5714H24.5V21.7143H21.5C21.1023 21.7139 20.721 21.5633 20.4398 21.2954C20.1586 21.0276 20.0004 20.6645 20 20.2857V17.4286C20.0004 17.0498 20.1586 16.6867 20.4398 16.4188C20.721 16.151 21.1023 16.0004 21.5 16H26V17.4286H21.5V20.2857H24.5C24.8977 20.2861 25.279 20.4367 25.5602 20.7046C25.8414 20.9724 25.9996 21.3355 26 21.7143V24.5714C25.9995 24.9502 25.8414 25.3133 25.5602 25.5811C25.279 25.8489 24.8977 25.9996 24.5 26Z" /><path d="M14.5 24.5714V16H13V26H19V24.5714H14.5Z" /><path d="M12 16H10.5L9 20.2857L7.5 16H6L8.064 21L6 26H7.5L9 21.7143L10.5 26H12L9.93375 21L12 16Z" /><path d="M22 14V10C22.0036 9.86857 21.9786 9.73792 21.9268 9.61708C21.875 9.49623 21.7976 9.38805 21.7 9.3L14.7 2.3C14.612 2.20233 14.5038 2.12492 14.3829 2.07313C14.2621 2.02133 14.1314 1.99638 14 2H4C3.47005 2.00156 2.96224 2.21277 2.58751 2.58751C2.21277 2.96224 2.00156 3.47005 2 4V28C2 28.5304 2.21071 29.0391 2.58579 29.4142C2.96086 29.7893 3.46957 30 4 30H20V28H4V4H12V10C12.0016 10.53 12.2128 11.0378 12.5875 11.4125C12.9622 11.7872 13.47 11.9984 14 12H20V14H22ZM14 10V4.4L19.6 10H14Z" /></symbol><symbol viewBox="0 0 32 32" id="generic-file"><path d="M25.7 9.3L18.7 2.3C18.612 2.20228 18.5038 2.12484 18.383 2.07305C18.2621 2.02125 18.1314 1.99632 18 2H8C7.47005 2.00156 6.96224 2.21277 6.58751 2.58751C6.21277 2.96224 6.00156 3.47005 6 4V28C6.00156 28.53 6.21277 29.0378 6.58751 29.4125C6.96224 29.7872 7.47005 29.9984 8 30H24C24.53 29.9984 25.0378 29.7872 25.4125 29.4125C25.7872 29.0378 25.9984 28.53 26 28V10C26.0037 9.86856 25.9788 9.73788 25.927 9.61702C25.8752 9.49616 25.7977 9.38799 25.7 9.3ZM18 4.4L23.6 10H18V4.4ZM24 28H8V4H16V10C16.0016 10.53 16.2128 11.0378 16.5875 11.4125C16.9622 11.7872 17.47 11.9984 18 12H24V28Z" /></symbol><symbol viewBox="0 0 34 34" id="grid-view"><g transform="translate(-1534 -1158)"><rect width="10" height="10" transform="translate(1534 1158)" /><rect width="10" height="10" transform="translate(1534 1170)" /><rect width="10" height="10" transform="translate(1534 1182)" /><rect width="10" height="10" transform="translate(1546 1158)" /><rect width="10" height="10" transform="translate(1546 1170)" /><rect width="10" height="10" transform="translate(1546 1182)" /><rect width="10" height="10" transform="translate(1558 1158)" /><rect width="10" height="10" transform="translate(1558 1170)" /><rect width="10" height="10" transform="translate(1558 1182)" /></g></symbol><symbol viewBox="0 0 32 32" id="home"><path d="M16.6123 2.2138C16.4348 2.07529 16.2161 2.00006 15.9909 2.00006C15.7658 2.00006 15.5471 2.07529 15.3696 2.2138L1 13.4194L2.2427 14.9911L4 13.6209V26C4.00108 26.5301 4.21215 27.0382 4.58698 27.413C4.96182 27.7879 5.4699 27.9989 6 28H26C26.5301 27.999 27.0383 27.788 27.4131 27.4131C27.788 27.0383 27.999 26.5301 28 26V13.63L29.7573 15L31 13.4282L16.6123 2.2138ZM18 26H14V18H18V26ZM20 26V18C19.9994 17.4698 19.7885 16.9614 19.4135 16.5865C19.0386 16.2115 18.5302 16.0006 18 16H14C13.4697 16.0005 12.9613 16.2114 12.5864 16.5864C12.2114 16.9613 12.0005 17.4697 12 18V26H6V12.0615L16 4.2715L26 12.072V26H20Z" /></symbol><symbol viewBox="0 0 32 32" id="information"><path d="M17 22V14H13V16H15V22H12V24H20V22H17Z" /><path d="M16 8C15.7033 8 15.4133 8.08797 15.1666 8.2528C14.92 8.41762 14.7277 8.65189 14.6142 8.92597C14.5006 9.20006 14.4709 9.50166 14.5288 9.79264C14.5867 10.0836 14.7296 10.3509 14.9393 10.5607C15.1491 10.7704 15.4164 10.9133 15.7074 10.9712C15.9983 11.0291 16.2999 10.9994 16.574 10.8858C16.8481 10.7723 17.0824 10.58 17.2472 10.3334C17.412 10.0867 17.5 9.79667 17.5 9.5C17.5 9.10218 17.342 8.72064 17.0607 8.43934C16.7794 8.15804 16.3978 8 16 8Z" /><path d="M16 30C13.2311 30 10.5243 29.1789 8.22202 27.6406C5.91973 26.1022 4.12532 23.9157 3.06569 21.3576C2.00607 18.7994 1.72882 15.9845 2.26901 13.2687C2.80921 10.553 4.14258 8.05845 6.10051 6.10051C8.05845 4.14258 10.553 2.80921 13.2687 2.26901C15.9845 1.72882 18.7994 2.00607 21.3576 3.06569C23.9157 4.12532 26.1022 5.91973 27.6406 8.22202C29.1789 10.5243 30 13.2311 30 16C30 19.713 28.525 23.274 25.8995 25.8995C23.274 28.525 19.713 30 16 30ZM16 4.00001C13.6266 4.00001 11.3066 4.70379 9.33316 6.02237C7.35977 7.34095 5.8217 9.21509 4.91345 11.4078C4.0052 13.6005 3.76756 16.0133 4.23058 18.3411C4.69361 20.6689 5.83649 22.8071 7.51472 24.4853C9.19296 26.1635 11.3312 27.3064 13.6589 27.7694C15.9867 28.2325 18.3995 27.9948 20.5922 27.0866C22.7849 26.1783 24.6591 24.6402 25.9776 22.6668C27.2962 20.6935 28 18.3734 28 16C28 12.8174 26.7357 9.76516 24.4853 7.51472C22.2348 5.26429 19.1826 4.00001 16 4.00001Z" /></symbol><symbol viewBox="0 0 32 32" id="link-hover"><path d="M24.9996 13C24.483 13.0019 23.9759 13.1398 23.5296 13.4C23.26 12.9724 22.8867 12.6198 22.4444 12.3751C22.0021 12.1303 21.5051 12.0013 20.9996 12C20.483 12.0019 19.9759 12.1398 19.5296 12.4C19.1658 11.8275 18.6187 11.3952 17.9776 11.1737C17.3365 10.9521 16.6393 10.9543 15.9996 11.18V6C15.9996 5.20435 15.6835 4.44129 15.1209 3.87868C14.5583 3.31607 13.7952 3 12.9996 3C12.2039 3 11.4409 3.31607 10.8783 3.87868C10.3157 4.44129 9.99959 5.20435 9.99959 6V17.1L7.76959 15.58C7.25839 15.1993 6.63697 14.9957 5.99959 15C5.40457 14.9985 4.82255 15.174 4.32754 15.5042C3.83252 15.8344 3.44687 16.3043 3.21961 16.8542C2.99236 17.4041 2.93376 18.0092 3.05128 18.5925C3.1688 19.1758 3.45712 19.711 3.87959 20.13L11.8796 27.43C13.0122 28.4437 14.4796 29.0029 15.9996 29H20.9996C22.8561 29 24.6366 28.2625 25.9493 26.9497C27.2621 25.637 27.9996 23.8565 27.9996 22V16C27.9996 15.2044 27.6835 14.4413 27.1209 13.8787C26.5583 13.3161 25.7952 13 24.9996 13ZM25.9996 22C25.9996 23.3261 25.4728 24.5979 24.5351 25.5355C23.5974 26.4732 22.3257 27 20.9996 27H15.9996C14.9888 27.0122 14.008 26.6568 13.2396 26L5.28959 18.7C5.10485 18.5137 5.0007 18.2623 4.99959 18C4.99959 17.8143 5.05131 17.6322 5.14894 17.4743C5.24658 17.3163 5.38627 17.1886 5.55238 17.1056C5.71849 17.0225 5.90444 16.9874 6.0894 17.004C6.27436 17.0207 6.45102 17.0886 6.59959 17.2L11.9996 20.9V6C11.9996 5.73478 12.1049 5.48043 12.2925 5.29289C12.48 5.10536 12.7344 5 12.9996 5C13.2648 5 13.5192 5.10536 13.7067 5.29289C13.8942 5.48043 13.9996 5.73478 13.9996 6V17H15.9996V14C15.9996 13.7348 16.1049 13.4804 16.2925 13.2929C16.48 13.1054 16.7344 13 16.9996 13C17.2648 13 17.5192 13.1054 17.7067 13.2929C17.8942 13.4804 17.9996 13.7348 17.9996 14V17H19.9996V15C19.9996 14.7348 20.1049 14.4804 20.2925 14.2929C20.48 14.1054 20.7344 14 20.9996 14C21.2648 14 21.5192 14.1054 21.7067 14.2929C21.8942 14.4804 21.9996 14.7348 21.9996 15V17H23.9996V16C23.9996 15.7348 24.1049 15.4804 24.2925 15.2929C24.48 15.1054 24.7344 15 24.9996 15C25.2648 15 25.5192 15.1054 25.7067 15.2929C25.8942 15.4804 25.9996 15.7348 25.9996 16V22Z" /></symbol><symbol viewBox="0 0 34 34" id="list-view"><g transform="translate(-1676 -1211)"><rect class="a" width="10" height="10" transform="translate(1676 1211)" /><rect class="a" width="10" height="10" transform="translate(1676 1223)" /><rect class="a" width="10" height="10" transform="translate(1676 1235)" /><rect class="a" width="22" height="10" transform="translate(1688 1211)" /><rect class="a" width="22" height="10" transform="translate(1688 1223)" /><rect class="a" width="22" height="10" transform="translate(1688 1235)" /></g></symbol><symbol viewBox="0 0 32 32" id="logo-facebook"><path d="M26.67 4H5.33C4.97807 4.00262 4.6413 4.14358 4.39244 4.39244C4.14358 4.6413 4.00262 4.97807 4 5.33V26.67C4.00262 27.0219 4.14358 27.3587 4.39244 27.6076C4.6413 27.8564 4.97807 27.9974 5.33 28H16.82V18.72H13.7V15.09H16.82V12.42C16.82 9.32 18.71 7.63 21.49 7.63C22.42 7.63 23.35 7.63 24.28 7.77V11H22.37C20.86 11 20.57 11.72 20.57 12.77V15.08H24.17L23.7 18.71H20.57V28H26.67C27.0219 27.9974 27.3587 27.8564 27.6076 27.6076C27.8564 27.3587 27.9974 27.0219 28 26.67V5.33C27.9974 4.97807 27.8564 4.6413 27.6076 4.39244C27.3587 4.14358 27.0219 4.00262 26.67 4Z" /></symbol><symbol viewBox="0 0 32 32" id="logo-instagram"><path d="M22.4058 11.0344C23.2011 11.0344 23.8458 10.3897 23.8458 9.59442C23.8458 8.79913 23.2011 8.15442 22.4058 8.15442C21.6105 8.15442 20.9658 8.79913 20.9658 9.59442C20.9658 10.3897 21.6105 11.0344 22.4058 11.0344Z" /><path d="M16.0001 9.8378C14.7813 9.8378 13.5899 10.1992 12.5766 10.8763C11.5632 11.5534 10.7734 12.5158 10.307 13.6418C9.84056 14.7678 9.71853 16.0068 9.9563 17.2022C10.1941 18.3975 10.781 19.4955 11.6428 20.3573C12.5046 21.2191 13.6026 21.806 14.7979 22.0438C15.9933 22.2816 17.2323 22.1595 18.3583 21.6931C19.4843 21.2267 20.4467 20.4369 21.1238 19.4235C21.8009 18.4102 22.1623 17.2188 22.1623 16C22.1623 14.3657 21.5131 12.7983 20.3574 11.6427C19.2018 10.487 17.6344 9.8378 16.0001 9.8378ZM16.0001 20C15.209 20 14.4356 19.7654 13.7778 19.3259C13.12 18.8864 12.6073 18.2616 12.3046 17.5307C12.0018 16.7998 11.9226 15.9956 12.077 15.2196C12.2313 14.4437 12.6123 13.731 13.1717 13.1716C13.7311 12.6122 14.4438 12.2312 15.2197 12.0769C15.9957 11.9225 16.7999 12.0017 17.5308 12.3045C18.2617 12.6072 18.8864 13.1199 19.326 13.7777C19.7655 14.4355 20.0001 15.2089 20.0001 16C20.0001 17.0609 19.5787 18.0783 18.8285 18.8284C18.0784 19.5786 17.061 20 16.0001 20Z" /><path d="M16 6.1622C19.2041 6.1622 19.5837 6.1744 20.849 6.2322C21.61 6.24126 22.3637 6.38103 23.0773 6.6454C23.5948 6.84509 24.0648 7.15087 24.457 7.5431C24.8492 7.93532 25.155 8.4053 25.3547 8.9228C25.6191 9.63641 25.7588 10.3901 25.7679 11.1511C25.8256 12.4164 25.8379 12.796 25.8379 16.0001C25.8379 19.2042 25.8257 19.5838 25.7679 20.8491C25.7588 21.6101 25.6191 22.3638 25.3547 23.0774C25.155 23.5949 24.8492 24.0649 24.457 24.4571C24.0648 24.8493 23.5948 25.1551 23.0773 25.3548C22.3637 25.6192 21.61 25.7589 20.849 25.768C19.5838 25.8257 19.2044 25.838 16 25.838C12.7956 25.838 12.4162 25.8258 11.151 25.768C10.39 25.7589 9.63631 25.6192 8.9227 25.3548C8.4052 25.1551 7.93522 24.8493 7.543 24.4571C7.15077 24.0649 6.84499 23.5949 6.6453 23.0774C6.38093 22.3638 6.24116 21.6101 6.2321 20.8491C6.1744 19.5838 6.1621 19.2042 6.1621 16.0001C6.1621 12.796 6.1743 12.4164 6.2321 11.1511C6.24116 10.3901 6.38093 9.63641 6.6453 8.9228C6.84497 8.40528 7.15076 7.93529 7.54298 7.54304C7.93521 7.1508 8.40519 6.845 8.9227 6.6453C9.63631 6.38093 10.39 6.24116 11.151 6.2321C12.4163 6.1744 12.7959 6.1621 16 6.1621V6.1622ZM16 4C12.741 4 12.3323 4.0138 11.0524 4.0722C10.0571 4.09218 9.07229 4.28079 8.14 4.63C7.34273 4.93831 6.61868 5.4098 6.01424 6.01424C5.4098 6.61868 4.93831 7.34273 4.63 8.14C4.28073 9.07245 4.09213 10.0574 4.0722 11.0529C4.0138 12.3323 4 12.741 4 16C4 19.259 4.0138 19.6677 4.0722 20.9476C4.09214 21.9431 4.28075 22.928 4.63 23.8605C4.93831 24.6578 5.4098 25.3818 6.01424 25.9863C6.61868 26.5907 7.34273 27.0622 8.14 27.3705C9.07245 27.7198 10.0574 27.9084 11.0529 27.9283C12.3323 27.9862 12.741 28 16 28C19.259 28 19.6677 27.9862 20.9476 27.9278C21.9431 27.9079 22.928 27.7193 23.8605 27.37C24.6578 27.0617 25.3818 26.5902 25.9863 25.9858C26.5907 25.3813 27.0622 24.6573 27.3705 23.86C27.7198 22.9275 27.9084 21.9426 27.9283 20.9471C27.9862 19.6677 28 19.259 28 16C28 12.741 27.9862 12.3323 27.9278 11.0524C27.9078 10.0571 27.7192 9.07229 27.37 8.14C27.0616 7.34283 26.5901 6.61887 25.9857 6.01452C25.3812 5.41017 24.6572 4.93876 23.86 4.6305C22.9275 4.28124 21.9426 4.09264 20.9471 4.0727C19.6677 4.0138 19.259 4 16 4Z" /></symbol><symbol viewBox="0 0 32 32" id="logo-linkedin"><path d="M26.21 3.99997H5.79C5.32472 3.99717 4.87685 4.17667 4.54228 4.50002C4.20772 4.82337 4.01306 5.26487 4 5.72997V26.2C4.0105 26.6659 4.20436 27.1089 4.53948 27.4328C4.87461 27.7567 5.32396 27.9354 5.79 27.93H26.21C26.676 27.9354 27.1254 27.7567 27.4605 27.4328C27.7956 27.1089 27.9895 26.6659 28 26.2V5.72997C27.9869 5.26487 27.7923 4.82337 27.4577 4.50002C27.1232 4.17667 26.6753 3.99717 26.21 3.99997ZM11.11 24.41H7.59V13H11.11V24.41ZM9.39 11.41C8.84956 11.4101 8.33048 11.1989 7.94369 10.8215C7.55689 10.444 7.33305 9.93026 7.32 9.38997C7.31021 9.1155 7.35706 8.84196 7.45762 8.58638C7.55819 8.33081 7.71031 8.09869 7.90452 7.90449C8.09872 7.71028 8.33084 7.55816 8.58641 7.4576C8.84198 7.35703 9.11553 7.31018 9.39 7.31997C9.91284 7.35638 10.4024 7.58976 10.7599 7.97301C11.1174 8.35627 11.3162 8.86086 11.3162 9.38497C11.3162 9.90908 11.1174 10.4137 10.7599 10.7969C10.4024 11.1802 9.91284 11.4136 9.39 11.45V11.41ZM24.48 24.34H21V18.76C21 17.43 21 15.7 19.14 15.7C17.28 15.7 17 17.16 17 18.63V24.28H13.44V13H16.76V14.5H16.83C17.1703 13.909 17.6665 13.4229 18.2643 13.0949C18.8622 12.7669 19.5387 12.6095 20.22 12.64C23.81 12.64 24.48 15.04 24.48 18.09V24.34Z" /></symbol><symbol viewBox="0 0 32 32" id="logo-twitter"><path d="M11.92 24.94C13.6091 24.9506 15.2836 24.6258 16.8462 23.9843C18.4088 23.3428 19.8285 22.3974 21.0229 21.2029C22.2174 20.0085 23.1627 18.5888 23.8043 17.0262C24.4458 15.4636 24.7706 13.7891 24.76 12.1C24.76 11.9 24.76 11.71 24.76 11.51C25.6356 10.8685 26.3935 10.0802 27 9.18001C26.1755 9.5406 25.3031 9.77975 24.41 9.89001C25.3569 9.32579 26.0674 8.43767 26.41 7.39C25.5275 7.91945 24.5598 8.29164 23.55 8.49C22.8699 7.76537 21.97 7.28506 20.9895 7.12339C20.0089 6.96172 19.0024 7.1277 18.1257 7.59566C17.249 8.06361 16.551 8.80745 16.1396 9.71208C15.7282 10.6167 15.6264 11.6317 15.85 12.6C14.056 12.5119 12.3007 12.047 10.6984 11.2355C9.096 10.424 7.68254 9.28409 6.55 7.89C5.97892 8.88118 5.80583 10.0523 6.06576 11.1663C6.32569 12.2803 6.99923 13.2539 7.95 13.89C7.24861 13.863 6.56345 13.6711 5.95 13.33V13.38C5.94377 14.4158 6.29272 15.4225 6.9387 16.2323C7.58469 17.042 8.48867 17.6059 9.5 17.83C8.84764 18.0055 8.16429 18.0328 7.5 17.91C7.79278 18.7934 8.35168 19.5646 9.10005 20.1178C9.84841 20.671 10.7496 20.9792 11.68 21C10.0892 22.2805 8.11209 22.9854 6.07 23C5.71195 22.9896 5.35475 22.9596 5 22.91C7.06696 24.2269 9.4692 24.9212 11.92 24.91" /></symbol><symbol viewBox="0 0 71 71" id="logo-uni"><circle cx="35.5" cy="35.5" r="34" stroke="#262626" stroke-width="3" fill="#f4f4f4" fill-opacity="1" /><path d="M26.8359 43.4326C25.7812 44.6729 24.2334 45.293 22.1924 45.293C20.5029 45.293 19.2139 44.8047 18.3252 43.8281C17.4463 42.8418 17.002 41.3867 16.9922 39.4629V29.1504H19.7021V39.3896C19.7021 41.792 20.6787 42.9932 22.6318 42.9932C24.7021 42.9932 26.0791 42.2217 26.7627 40.6787V29.1504H29.4727V45H26.8945L26.8359 43.4326Z" /><path d="M36.167 29.1504L36.2549 31.1426C37.4658 29.6191 39.0479 28.8574 41.001 28.8574C44.3506 28.8574 46.04 30.7471 46.0693 34.5264V45H43.3594V34.5117C43.3496 33.3691 43.0859 32.5244 42.5684 31.9775C42.0605 31.4307 41.2646 31.1572 40.1807 31.1572C39.3018 31.1572 38.5303 31.3916 37.8662 31.8604C37.2021 32.3291 36.6846 32.9443 36.3135 33.7061V45H33.6035V29.1504H36.167Z" /><path d="M53.1006 45H50.3906V29.1504H53.1006V45ZM50.1709 24.9463C50.1709 24.5068 50.3027 24.1357 50.5664 23.833C50.8398 23.5303 51.2402 23.3789 51.7676 23.3789C52.2949 23.3789 52.6953 23.5303 52.9688 23.833C53.2422 24.1357 53.3789 24.5068 53.3789 24.9463C53.3789 25.3857 53.2422 25.752 52.9688 26.0449C52.6953 26.3379 52.2949 26.4844 51.7676 26.4844C51.2402 26.4844 50.8398 26.3379 50.5664 26.0449C50.3027 25.752 50.1709 25.3857 50.1709 24.9463Z" /></symbol><symbol viewBox="0 0 32 32" id="map"><path d="M16 24L9.90997 15.4C8.91315 14.2231 8.27121 12.7872 8.05892 11.2595C7.84664 9.73183 8.07273 8.17529 8.71088 6.77115C9.34902 5.36702 10.373 4.17308 11.6634 3.32839C12.9539 2.4837 14.4578 2.02302 16 2C18.1377 2.02113 20.18 2.88859 21.6794 4.41241C23.1789 5.93623 24.0133 7.99219 24 10.13C24.0008 11.9949 23.3659 13.8044 22.2 15.26L16 24ZM16 4C14.3918 4.01847 12.8567 4.67438 11.7318 5.82371C10.6068 6.97303 9.98397 8.52183 9.99997 10.13C10.0067 11.5978 10.5348 13.0155 11.49 14.13L16 20.52L20.63 14C21.5101 12.9014 21.9929 11.5376 22 10.13C22.016 8.52183 21.3931 6.97303 20.2682 5.82371C19.1432 4.67438 17.6081 4.01847 16 4Z" /><path d="M16 11C17.1046 11 18 10.1046 18 9C18 7.89543 17.1046 7 16 7C14.8954 7 14 7.89543 14 9C14 10.1046 14.8954 11 16 11Z" /><path d="M28 12H26V14H28V28H4V14H6V12H4C3.46957 12 2.96086 12.2107 2.58579 12.5858C2.21071 12.9609 2 13.4696 2 14V28C2 28.5304 2.21071 29.0391 2.58579 29.4142C2.96086 29.7893 3.46957 30 4 30H28C28.5304 30 29.0391 29.7893 29.4142 29.4142C29.7893 29.0391 30 28.5304 30 28V14C30 13.4696 29.7893 12.9609 29.4142 12.5858C29.0391 12.2107 28.5304 12 28 12Z" /></symbol><symbol viewBox="0 0 88 88" id="master-illustration"><path d="M87 44V69.4737C87 79.1532 79.1532 87 69.4737 87H44C20.2518 87 1 67.7482 1 44C1 20.2518 20.2518 1 44 1C67.7482 1 87 20.2518 87 44Z" stroke="#EDEDED" stroke-width="2" /><path fill-rule="evenodd" clip-rule="evenodd" d="M15.8471 30.996L39.7321 17.9627C41.4321 17.056 43.4721 17.056 45.1721 17.9627L72.1454 32.6677C73.0521 33.1777 73.6188 34.1127 73.6188 35.161V53.3227C73.6188 54.881 72.3438 56.156 70.7854 56.156C69.2271 56.156 67.9521 54.881 67.9521 53.3227V36.5777L45.1721 49.016C43.4721 49.951 41.4321 49.951 39.7321 49.016L15.8471 35.9827C13.8921 34.906 13.8921 32.0727 15.8471 30.996ZM22.6188 53.2944V45.3327L39.7321 54.6827C41.4321 55.6177 43.4721 55.6177 45.1721 54.6827L62.2854 45.3327V53.2944C62.2854 55.3627 61.1521 57.2894 59.3388 58.281L45.1721 66.016C43.4721 66.951 41.4321 66.951 39.7321 66.016L25.5654 58.281C23.7521 57.2894 22.6188 55.3627 22.6188 53.2944Z" fill-opacity="0.54" /><circle cx="65.5" cy="65.5" r="13.5" fill="white" stroke="white" stroke-width="4" /><path fill-rule="evenodd" clip-rule="evenodd" d="M65.5 54.25C59.29 54.25 54.25 59.29 54.25 65.5C54.25 71.71 59.29 76.75 65.5 76.75C71.71 76.75 76.75 71.71 76.75 65.5C76.75 59.29 71.71 54.25 65.5 54.25ZM56.5 65.5C56.5 60.5275 60.5275 56.5 65.5 56.5C67.5813 56.5 69.4937 57.2088 71.0125 58.4012L58.4012 71.0125C57.2088 69.4937 56.5 67.5813 56.5 65.5ZM59.9875 72.5988C61.5062 73.7913 63.4187 74.5 65.5 74.5C70.4725 74.5 74.5 70.4725 74.5 65.5C74.5 63.4187 73.7913 61.5062 72.5988 59.9875L59.9875 72.5988Z" /></symbol><symbol viewBox="0 0 32 32" id="menu"><path d="M28 6H4V8H28V6Z" /><path d="M28 24H4V26H28V24Z" /><path d="M28 12H4V14H28V12Z" /><path d="M28 18H4V20H28V18Z" /></symbol><symbol viewBox="0 0 32 32" id="ms-excel-document"><path d="M24.5 26H20V24.5714H24.5V21.7143H21.5C21.1023 21.7139 20.721 21.5633 20.4398 21.2954C20.1586 21.0276 20.0004 20.6645 20 20.2857V17.4286C20.0004 17.0498 20.1586 16.6867 20.4398 16.4188C20.721 16.151 21.1023 16.0004 21.5 16H26V17.4286H21.5V20.2857H24.5C24.8977 20.2861 25.279 20.4367 25.5602 20.7046C25.8414 20.9724 25.9996 21.3355 26 21.7143V24.5714C25.9995 24.9502 25.8414 25.3133 25.5602 25.5811C25.279 25.8489 24.8977 25.9996 24.5 26Z" /><path d="M14.5 24.5714V16H13V26H19V24.5714H14.5Z" /><path d="M12 16H10.5L9 20.2857L7.5 16H6L8.064 21L6 26H7.5L9 21.7143L10.5 26H12L9.93375 21L12 16Z" /><path d="M22 14V10C22.0036 9.86857 21.9786 9.73792 21.9268 9.61708C21.875 9.49623 21.7976 9.38805 21.7 9.3L14.7 2.3C14.612 2.20233 14.5038 2.12492 14.3829 2.07313C14.2621 2.02133 14.1314 1.99638 14 2H4C3.47005 2.00156 2.96224 2.21277 2.58751 2.58751C2.21277 2.96224 2.00156 3.47005 2 4V28C2 28.5304 2.21071 29.0391 2.58579 29.4142C2.96086 29.7893 3.46957 30 4 30H20V28H4V4H12V10C12.0016 10.53 12.2128 11.0378 12.5875 11.4125C12.9622 11.7872 13.47 11.9984 14 12H20V14H22ZM14 10V4.4L19.6 10H14Z" /></symbol><symbol viewBox="0 0 32 32" id="ms-powerpoint-document"><path d="M21 17.4286H23.25V26H24.75V17.4286H27V16H21V17.4286Z" /><path d="M15 26H13.5V16H18C18.3977 16.0004 18.779 16.151 19.0602 16.4188C19.3414 16.6867 19.4996 17.0498 19.5 17.4286V21C19.4996 21.3788 19.3414 21.7419 19.0602 22.0097C18.779 22.2776 18.3977 22.4282 18 22.4286H15V26ZM15 21H18V17.4275H15V21Z" /><path d="M7.5 26H6V16H10.5C10.8977 16.0004 11.279 16.151 11.5602 16.4188C11.8414 16.6867 11.9996 17.0498 12 17.4286V21C11.9996 21.3788 11.8414 21.7419 11.5602 22.0097C11.279 22.2776 10.8977 22.4282 10.5 22.4286H7.5V26ZM7.5 21H10.5V17.4275H7.5V21Z" /><path d="M22 14V10C22.0036 9.86857 21.9786 9.73792 21.9268 9.61708C21.875 9.49623 21.7976 9.38805 21.7 9.3L14.7 2.3C14.612 2.20233 14.5038 2.12492 14.3829 2.07313C14.2621 2.02133 14.1314 1.99638 14 2H4C3.47005 2.00156 2.96224 2.21277 2.58751 2.58751C2.21277 2.96224 2.00156 3.47005 2 4V28C2 28.5304 2.21071 29.0391 2.58579 29.4142C2.96086 29.7893 3.46957 30 4 30H20V28H4V4H12V10C12.0016 10.53 12.2128 11.0378 12.5875 11.4125C12.9622 11.7872 13.47 11.9984 14 12H20V14H22ZM14 10V4.4L19.6 10H14Z" /></symbol><symbol viewBox="0 0 32 32" id="ms-word-document"><path d="M27 26H22.5C22.1023 25.9996 21.721 25.8489 21.4398 25.5811C21.1586 25.3133 21.0005 24.9502 21 24.5714V17.4286C21.0004 17.0498 21.1586 16.6867 21.4398 16.4188C21.721 16.151 22.1023 16.0004 22.5 16H27V17.4286H22.5V24.5714H27V26Z" /><path d="M18 26H15C14.6023 25.9996 14.2211 25.8489 13.9398 25.5811C13.6586 25.3133 13.5005 24.9502 13.5 24.5714V17.4286C13.5004 17.0498 13.6586 16.6867 13.9398 16.4188C14.221 16.151 14.6023 16.0004 15 16H18C18.3977 16.0004 18.779 16.151 19.0602 16.4188C19.3414 16.6867 19.4996 17.0498 19.5 17.4286V24.5714C19.4995 24.9502 19.3414 25.3133 19.0602 25.5811C18.779 25.8489 18.3977 25.9996 18 26ZM15 17.4286V24.5714H18V17.4286H15Z" /><path d="M9 26H6V16H9C9.79538 16.0009 10.5579 16.3021 11.1203 16.8378C11.6827 17.3734 11.9991 18.0996 12 18.8571V23.1429C11.9991 23.9004 11.6827 24.6266 11.1203 25.1622C10.5579 25.6979 9.79538 25.9991 9 26ZM7.5 24.5714H9C9.3977 24.5711 9.779 24.4204 10.0602 24.1526C10.3414 23.8848 10.4996 23.5216 10.5 23.1429V18.8571C10.4996 18.4784 10.3414 18.1152 10.0602 17.8474C9.779 17.5796 9.3977 17.4289 9 17.4286H7.5V24.5714Z" /><path d="M22 14V10C22.0036 9.86857 21.9786 9.73792 21.9268 9.61708C21.875 9.49623 21.7976 9.38805 21.7 9.3L14.7 2.3C14.612 2.20233 14.5038 2.12492 14.3829 2.07313C14.2621 2.02133 14.1314 1.99638 14 2H4C3.47005 2.00156 2.96224 2.21277 2.58751 2.58751C2.21277 2.96224 2.00156 3.47005 2 4V28C2 28.5304 2.21071 29.0391 2.58579 29.4142C2.96086 29.7893 3.46957 30 4 30H20V28H4V4H12V10C12.0016 10.53 12.2128 11.0378 12.5875 11.4125C12.9622 11.7872 13.47 11.9984 14 12H20V14H22ZM14 10V4.4L19.6 10H14Z" /></symbol><symbol viewBox="0 0 24 24" id="news"><path d="M20,9L20,9c0-0.55-0.45-1-1-1h-3V5c0-0.55-0.45-1-1-1h0c-0.55,0-1,0.45-1,1v3h-4V5c0-0.55-0.45-1-1-1h0C8.45,4,8,4.45,8,5 v3H5C4.45,8,4,8.45,4,9v0c0,0.55,0.45,1,1,1h3v4H5c-0.55,0-1,0.45-1,1v0c0,0.55,0.45,1,1,1h3v3c0,0.55,0.45,1,1,1h0 c0.55,0,1-0.45,1-1v-3h4v3c0,0.55,0.45,1,1,1h0c0.55,0,1-0.45,1-1v-3h3c0.55,0,1-0.45,1-1v0c0-0.55-0.45-1-1-1h-3v-4h3 C19.55,10,20,9.55,20,9z M14,14h-4v-4h4V14z" /></symbol><symbol viewBox="0 0 32 32" id="next-outline"><path d="M16 8L14.57 9.393L20.15 15H8V17H20.15L14.57 22.573L16 24L24 16L16 8Z" /><path d="M16 30C13.2311 30 10.5243 29.1789 8.22202 27.6406C5.91973 26.1022 4.12532 23.9157 3.06569 21.3576C2.00607 18.7994 1.72882 15.9845 2.26901 13.2687C2.80921 10.553 4.14258 8.05845 6.10051 6.10051C8.05845 4.14258 10.553 2.80921 13.2687 2.26901C15.9845 1.72882 18.7994 2.00607 21.3576 3.06569C23.9157 4.12532 26.1022 5.91973 27.6406 8.22202C29.1789 10.5243 30 13.2311 30 16C29.9958 19.7118 28.5195 23.2703 25.8949 25.8949C23.2703 28.5195 19.7118 29.9958 16 30ZM16 4.00001C13.6266 4.00001 11.3066 4.70379 9.33316 6.02237C7.35977 7.34095 5.8217 9.21509 4.91345 11.4078C4.0052 13.6005 3.76756 16.0133 4.23058 18.3411C4.69361 20.6689 5.83649 22.8071 7.51472 24.4853C9.19296 26.1635 11.3312 27.3064 13.6589 27.7694C15.9867 28.2325 18.3995 27.9948 20.5922 27.0866C22.7849 26.1783 24.6591 24.6402 25.9776 22.6668C27.2962 20.6935 28 18.3734 28 16C27.9964 12.8185 26.7309 9.76838 24.4813 7.51873C22.2316 5.26908 19.1815 4.00363 16 4.00001Z" /></symbol><symbol viewBox="0 0 71 73" id="no-courses"><path d="M5.84662 22.9965L29.7316 9.9632C31.4316 9.05654 33.4716 9.05654 35.1716 9.9632L62.145 24.6682C63.0516 25.1782 63.6183 26.1132 63.6183 27.1615V45.3232C63.6183 46.8815 62.3433 48.1565 60.785 48.1565C59.2266 48.1565 57.9516 46.8815 57.9516 45.3232V28.5782L35.1716 41.0165C33.4716 41.9515 31.4316 41.9515 29.7316 41.0165L5.84662 27.9832C3.89162 26.9065 3.89162 24.0732 5.84662 22.9965ZM12.6175 45.2946V37.3329L29.7308 46.6829C31.4308 47.6179 33.4708 47.6179 35.1708 46.6829L52.2842 37.3329V45.2946C52.2842 47.3629 51.1508 49.2896 49.3375 50.2813L35.1708 58.0163C33.4708 58.9513 31.4308 58.9513 29.7308 58.0163L15.5642 50.2813C13.7508 49.2896 12.6175 47.3629 12.6175 45.2946Z" /><path d="M55.5 46.25C49.29 46.25 44.25 51.29 44.25 57.5C44.25 63.71 49.29 68.75 55.5 68.75C61.71 68.75 66.75 63.71 66.75 57.5C66.75 51.29 61.71 46.25 55.5 46.25ZM46.5 57.5C46.5 52.5275 50.5275 48.5 55.5 48.5C57.5813 48.5 59.4937 49.2088 61.0125 50.4012L48.4012 63.0125C47.2088 61.4937 46.5 59.5813 46.5 57.5ZM49.9875 64.5988C51.5063 65.7913 53.4188 66.5 55.5 66.5C60.4725 66.5 64.5 62.4725 64.5 57.5C64.5 55.4188 63.7913 53.5063 62.5988 51.9875L49.9875 64.5988Z" /></symbol><symbol viewBox="0 0 53 48" id="no-results"><path opacity="0.15" d="M39.5631 30.2224H37.4358L36.6818 29.4953C39.3208 26.4255 40.9095 22.4402 40.9095 18.1048C40.9095 8.43762 33.0735 0.601562 23.4063 0.601562C14.1969 0.601562 6.65709 7.71056 5.98389 16.7584H11.4233C12.0965 10.6996 17.159 5.98717 23.4063 5.98717C30.1114 5.98717 35.5239 11.3997 35.5239 18.1048C35.5239 24.8099 30.1114 30.2224 23.4063 30.2224C22.9485 30.2224 22.5177 30.1416 22.0599 30.0877V35.5272C22.5177 35.5811 22.9485 35.608 23.4063 35.608C27.7417 35.608 31.7271 34.0192 34.7969 31.3803L35.5239 32.1343V34.2616L48.9879 47.6987L53.0002 43.6864L39.5631 30.2224Z" /><path d="M15.247 21.6592L8.59582 28.3104L1.9446 21.6592L0.0327148 23.5711L6.68393 30.2223L0.0327148 36.8735L1.9446 38.7854L8.59582 32.1342L15.247 38.7854L17.1589 36.8735L10.5077 30.2223L17.1589 23.5711L15.247 21.6592Z" /></symbol><symbol viewBox="0 0 24 24" id="notification"><path d="M12 22c1.1 0 2-.9 2-2h-4c0 1.1.89 2 2 2zm6-6v-5c0-3.07-1.64-5.64-4.5-6.32V4c0-.83-.67-1.5-1.5-1.5s-1.5.67-1.5 1.5v.68C7.63 5.36 6 7.92 6 11v5l-1.29 1.29c-.63.63-.19 1.71.7 1.71h13.17c.89 0 1.34-1.08.71-1.71L18 16z" /></symbol><symbol viewBox="0 0 32 32" id="overflow-menu"><path d="M8 18C9.10457 18 10 17.1046 10 16C10 14.8954 9.10457 14 8 14C6.89543 14 6 14.8954 6 16C6 17.1046 6.89543 18 8 18Z" /><path d="M16 18C17.1046 18 18 17.1046 18 16C18 14.8954 17.1046 14 16 14C14.8954 14 14 14.8954 14 16C14 17.1046 14.8954 18 16 18Z" /><path d="M24 18C25.1046 18 26 17.1046 26 16C26 14.8954 25.1046 14 24 14C22.8954 14 22 14.8954 22 16C22 17.1046 22.8954 18 24 18Z" /></symbol><symbol viewBox="0 0 32 32" id="pause"><path d="M12 8V24H8V8H12ZM12 6H8C7.46957 6 6.96086 6.21071 6.58579 6.58579C6.21071 6.96086 6 7.46957 6 8V24C6 24.5304 6.21071 25.0391 6.58579 25.4142C6.96086 25.7893 7.46957 26 8 26H12C12.5304 26 13.0391 25.7893 13.4142 25.4142C13.7893 25.0391 14 24.5304 14 24V8C14 7.46957 13.7893 6.96086 13.4142 6.58579C13.0391 6.21071 12.5304 6 12 6Z" /><path d="M24 8V24H20V8H24ZM24 6H20C19.4696 6 18.9609 6.21071 18.5858 6.58579C18.2107 6.96086 18 7.46957 18 8V24C18 24.5304 18.2107 25.0391 18.5858 25.4142C18.9609 25.7893 19.4696 26 20 26H24C24.5304 26 25.0391 25.7893 25.4142 25.4142C25.7893 25.0391 26 24.5304 26 24V8C26 7.46957 25.7893 6.96086 25.4142 6.58579C25.0391 6.21071 24.5304 6 24 6Z" /></symbol><symbol viewBox="0 0 32 32" id="pdf-file"><path d="M27 17.4286V16H21V26H22.5V21.7143H26.25V20.2857H22.5V17.4286H27Z" /><path d="M10.5 16H6V26H7.5V22.4286H10.5C10.8978 22.4286 11.2794 22.2781 11.5607 22.0102C11.842 21.7422 12 21.3789 12 21V17.4286C12 17.0497 11.842 16.6863 11.5607 16.4184C11.2794 16.1505 10.8978 16 10.5 16ZM10.5 21H7.5V17.4286H10.5V21Z" /><path d="M16.5 26H13.5V16H16.5C17.2956 16 18.0587 16.301 18.6213 16.8368C19.1839 17.3727 19.5 18.0994 19.5 18.8571V23.1429C19.5 23.9006 19.1839 24.6273 18.6213 25.1632C18.0587 25.699 17.2956 26 16.5 26ZM15 24.5714H16.5C16.8978 24.5714 17.2794 24.4209 17.5607 24.153C17.842 23.8851 18 23.5217 18 23.1429V18.8571C18 18.4783 17.842 18.1149 17.5607 17.847C17.2794 17.5791 16.8978 17.4286 16.5 17.4286H15V24.5714Z" /><path d="M22 14V10C22.0036 9.86857 21.9786 9.73792 21.9268 9.61708C21.875 9.49623 21.7976 9.38805 21.7 9.3L14.7 2.3C14.612 2.20233 14.5038 2.12492 14.3829 2.07313C14.2621 2.02133 14.1314 1.99638 14 2H4C3.47005 2.00156 2.96224 2.21277 2.58751 2.58751C2.21277 2.96224 2.00156 3.47005 2 4V28C2 28.5304 2.21071 29.0391 2.58579 29.4142C2.96086 29.7893 3.46957 30 4 30H20V28H4V4H12V10C12.0016 10.53 12.2128 11.0378 12.5875 11.4125C12.9622 11.7872 13.47 11.9984 14 12H20V14H22ZM14 10V4.4L19.6 10H14Z" /></symbol><symbol viewBox="0 0 32 32" id="phone"><path d="M25.9998 29H25.8298C6.17976 27.87 3.38976 11.29 2.99976 6.23C2.96833 5.83658 3.01485 5.44082 3.13663 5.06541C3.25842 4.69 3.45309 4.3423 3.70948 4.04225C3.96587 3.7422 4.27894 3.49569 4.63077 3.31684C4.98259 3.13799 5.36625 3.03032 5.75976 3H11.2698C11.6703 2.99961 12.0618 3.11951 12.3934 3.34416C12.725 3.56881 12.9816 3.88787 13.1298 4.26L14.6498 8C14.7961 8.36355 14.8324 8.76208 14.7542 9.14609C14.676 9.5301 14.4867 9.88267 14.2098 10.16L12.0798 12.31C12.4125 14.2007 13.3179 15.9437 14.6737 17.303C16.0294 18.6622 17.7699 19.5723 19.6598 19.91L21.8298 17.76C22.1113 17.4862 22.4671 17.3013 22.853 17.2283C23.2389 17.1554 23.6378 17.1977 23.9998 17.35L27.7698 18.86C28.1363 19.0129 28.449 19.2714 28.668 19.6027C28.8871 19.9339 29.0026 20.3229 28.9998 20.72V26C28.9998 26.7956 28.6837 27.5587 28.1211 28.1213C27.5585 28.6839 26.7954 29 25.9998 29ZM5.99976 5C5.73454 5 5.48019 5.10536 5.29265 5.29289C5.10512 5.48043 4.99976 5.73478 4.99976 6V6.08C5.45976 12 8.40976 26 25.9398 27C26.0711 27.0081 26.2028 26.9902 26.3273 26.9473C26.4517 26.9045 26.5665 26.8374 26.6649 26.7501C26.7634 26.6628 26.8437 26.5568 26.9011 26.4384C26.9586 26.32 26.9921 26.1914 26.9998 26.06V20.72L23.2298 19.21L20.3598 22.06L19.8798 22C11.1798 20.91 9.99976 12.21 9.99976 12.12L9.93976 11.64L12.7798 8.77L11.2798 5H5.99976Z" /></symbol><symbol viewBox="0 0 24 24" id="pin"><path clip-rule="evenodd" d="M19 12.87C19 12.4 18.66 12.02 18.2 11.89C16.93 11.54 16 10.38 16 9V4H17C17.55 4 18 3.55 18 3C18 2.45 17.55 2 17 2H7C6.45 2 6 2.45 6 3C6 3.55 6.45 4 7 4H8V9C8 10.38 7.07 11.54 5.8 11.89C5.34 12.02 5 12.4 5 12.87V13C5 13.55 5.45 14 6 14H10.98L11 21C11 21.55 11.45 22 12 22C12.55 22 13 21.55 13 21L12.98 14H18C18.55 14 19 13.55 19 13V12.87Z" /></symbol><symbol viewBox="0 0 32 32" id="play"><path d="M7 28C6.73478 28 6.48043 27.8947 6.29289 27.7071C6.10536 27.5196 6 27.2652 6 27V5.00001C5.99999 4.82623 6.04526 4.65545 6.13136 4.50449C6.21746 4.35354 6.34141 4.22763 6.491 4.13917C6.64058 4.05072 6.81064 4.00277 6.9844 4.00006C7.15816 3.99735 7.32963 4.03997 7.4819 4.12371L27.4819 15.1237C27.6388 15.21 27.7697 15.3368 27.8608 15.491C27.952 15.6451 28 15.8209 28 16C28 16.179 27.952 16.3548 27.8608 16.509C27.7697 16.6631 27.6388 16.7899 27.4819 16.8762L7.4819 27.8762C7.33425 27.9574 7.1685 28 7 28ZM8 6.69091V25.3088L24.9248 16L8 6.69091Z" /></symbol><symbol viewBox="0 0 32 32" id="scroll-me"><path fill-rule="evenodd" clip-rule="evenodd" d="M22 21.9925V10.0075C22 6.30221 19.7204 4 16.0151 4C12.3099 4 10.0151 6.30221 10.0151 10.0075V21.9925C10.0151 25.6978 12.3022 28 16.0075 28C19.7127 28 22 25.6978 22 21.9925ZM16.0075 2C11.5851 2 8 5.58506 8 10.0075V21.9925C8 26.4149 11.5851 30 16.0075 30C20.4299 30 24.0149 26.4149 24.0149 21.9925V10.0075C24.0149 5.58506 20.4299 2 16.0075 2Z" /><path d="M14.5 8.51492C14.5 7.67825 15.1783 7 16.0149 7C16.8516 7 17.5299 7.67826 17.5299 8.51493V10.2463C17.5299 11.0829 16.8516 11.7612 16.0149 11.7612C15.1783 11.7612 14.5 11.0829 14.5 10.2463V8.51492Z" /></symbol><symbol viewBox="0 0 32 32" id="search"><path d="M29.0002 27.5859L21.4481 20.0338C23.2629 17.8552 24.1678 15.0608 23.9747 12.2319C23.7815 9.40306 22.5053 6.75757 20.4113 4.84576C18.3173 2.93396 15.5669 1.90303 12.7322 1.96745C9.89755 2.03186 7.19681 3.18666 5.19186 5.19161C3.1869 7.19656 2.03211 9.8973 1.96769 12.732C1.90327 15.5667 2.9342 18.3171 4.84601 20.4111C6.75782 22.505 9.40331 23.7813 12.2322 23.9744C15.061 24.1675 17.8554 23.2626 20.034 21.4479L27.5861 29L29.0002 27.5859ZM4.00024 13C4.00024 11.22 4.52808 9.4799 5.51701 7.99986C6.50594 6.51982 7.91155 5.36627 9.55609 4.68508C11.2006 4.00389 13.0102 3.82566 14.756 4.17292C16.5019 4.52019 18.1055 5.37736 19.3642 6.63603C20.6229 7.8947 21.48 9.49835 21.8273 11.2442C22.1746 12.99 21.9963 14.7996 21.3152 16.4441C20.634 18.0887 19.4804 19.4943 18.0004 20.4832C16.5203 21.4722 14.7803 22 13.0002 22C10.6141 21.9973 8.32645 21.0483 6.6392 19.361C4.95194 17.6738 4.00288 15.3861 4.00024 13Z" /></symbol><symbol viewBox="0 0 32 32" id="send"><path d="M27.71 4.29001C27.575 4.15569 27.4045 4.06268 27.2185 4.02194C27.0325 3.9812 26.8388 3.99441 26.66 4.06001L4.66 12.06C4.47027 12.132 4.30692 12.26 4.19165 12.427C4.07638 12.594 4.01465 12.7921 4.01465 12.995C4.01465 13.1979 4.07638 13.3961 4.19165 13.5631C4.30692 13.7301 4.47027 13.858 4.66 13.93L14.26 17.77L18.1 27.37C18.1721 27.5514 18.2958 27.7077 18.4557 27.8197C18.6157 27.9316 18.8049 27.9943 19 28C19.2021 27.9959 19.3982 27.9306 19.5624 27.8128C19.7266 27.6949 19.8513 27.5301 19.92 27.34L27.92 5.34001C27.9881 5.16309 28.0046 4.97044 27.9674 4.78454C27.9302 4.59863 27.8409 4.42712 27.71 4.29001ZM19 24.2L16.21 17.2L21 12.41L19.59 11L14.76 15.83L7.8 13L25.33 6.67001L19 24.2Z" /></symbol><symbol viewBox="0 0 32 32" id="subtract"><path d="M24 15H8V17H24V15Z" /></symbol><symbol viewBox="0 0 32 32" id="subtract-alt"><path d="M16 4C22.6 4 28 9.4 28 16C28 22.6 22.6 28 16 28C9.4 28 4 22.6 4 16C4 9.4 9.4 4 16 4ZM16 2C8.3 2 2 8.3 2 16C2 23.7 8.3 30 16 30C23.7 30 30 23.7 30 16C30 8.3 23.7 2 16 2Z" /><path d="M24 15H8V17H24V15Z" /></symbol><symbol viewBox="0 0 32 32" id="time"><path d="M16 30C13.2311 30 10.5243 29.1789 8.22202 27.6406C5.91973 26.1022 4.12532 23.9157 3.06569 21.3576C2.00607 18.7994 1.72882 15.9845 2.26901 13.2687C2.80921 10.553 4.14258 8.05845 6.10051 6.10051C8.05845 4.14258 10.553 2.80921 13.2687 2.26901C15.9845 1.72882 18.7994 2.00607 21.3576 3.06569C23.9157 4.12532 26.1022 5.91973 27.6406 8.22202C29.1789 10.5243 30 13.2311 30 16C30 19.713 28.525 23.274 25.8995 25.8995C23.274 28.525 19.713 30 16 30ZM16 4.00001C13.6266 4.00001 11.3066 4.70379 9.33316 6.02237C7.35977 7.34095 5.8217 9.21509 4.91345 11.4078C4.0052 13.6005 3.76756 16.0133 4.23058 18.3411C4.69361 20.6689 5.83649 22.8071 7.51472 24.4853C9.19296 26.1635 11.3312 27.3064 13.6589 27.7694C15.9867 28.2325 18.3995 27.9948 20.5922 27.0866C22.7849 26.1783 24.6591 24.6402 25.9776 22.6668C27.2962 20.6935 28 18.3734 28 16C28 12.8174 26.7357 9.76516 24.4853 7.51472C22.2348 5.26429 19.1826 4.00001 16 4.00001Z" /><path d="M20.59 22L15 16.41V7H17V15.58L22 20.59L20.59 22Z" /></symbol><symbol viewBox="0 0 32 32" id="user-avatar"><path d="M16 8C15.0111 8 14.0444 8.29325 13.2222 8.84265C12.3999 9.39206 11.759 10.173 11.3806 11.0866C11.0022 12.0002 10.9031 13.0055 11.0961 13.9755C11.289 14.9454 11.7652 15.8363 12.4645 16.5355C13.1637 17.2348 14.0546 17.711 15.0246 17.9039C15.9945 18.0969 16.9998 17.9978 17.9134 17.6194C18.8271 17.241 19.6079 16.6001 20.1574 15.7779C20.7068 14.9556 21 13.9889 21 13C21 11.6739 20.4732 10.4021 19.5355 9.46447C18.5979 8.52678 17.3261 8 16 8ZM16 16C15.4067 16 14.8266 15.8241 14.3333 15.4944C13.8399 15.1648 13.4554 14.6962 13.2284 14.1481C13.0013 13.5999 12.9419 12.9967 13.0576 12.4147C13.1734 11.8328 13.4591 11.2982 13.8787 10.8787C14.2982 10.4591 14.8328 10.1734 15.4147 10.0576C15.9967 9.94189 16.5999 10.0013 17.1481 10.2284C17.6962 10.4554 18.1648 10.8399 18.4944 11.3333C18.8241 11.8266 19 12.4067 19 13C18.9991 13.7954 18.6827 14.5579 18.1203 15.1203C17.5579 15.6827 16.7954 15.9991 16 16Z" /><path d="M16 2C13.2311 2 10.5243 2.82109 8.22202 4.35943C5.91973 5.89777 4.12532 8.08427 3.06569 10.6424C2.00607 13.2006 1.72882 16.0155 2.26901 18.7313C2.80921 21.447 4.14258 23.9416 6.10051 25.8995C8.05845 27.8574 10.553 29.1908 13.2687 29.731C15.9845 30.2712 18.7994 29.9939 21.3576 28.9343C23.9157 27.8747 26.1022 26.0803 27.6406 23.778C29.1789 21.4757 30 18.7689 30 16C29.9958 12.2883 28.5195 8.72973 25.8949 6.10512C23.2703 3.48052 19.7118 2.00418 16 2ZM10 26.3765V25C10.0009 24.2046 10.3172 23.4421 10.8797 22.8796C11.4421 22.3172 12.2046 22.0009 13 22H19C19.7954 22.0009 20.5579 22.3172 21.1204 22.8796C21.6828 23.4421 21.9991 24.2046 22 25V26.3765C20.1792 27.4397 18.1085 28 16 28C13.8915 28 11.8208 27.4397 10 26.3765ZM23.9925 24.9258C23.9726 23.614 23.4382 22.3626 22.5043 21.4412C21.5704 20.5198 20.3119 20.0022 19 20H13C11.6881 20.0022 10.4296 20.5198 9.49573 21.4412C8.56186 22.3626 8.02739 23.614 8.00751 24.9258C6.19407 23.3065 4.91524 21.1747 4.34034 18.8125C3.76545 16.4503 3.92161 13.9691 4.78814 11.6977C5.65468 9.42618 7.19073 7.47147 9.19288 6.09237C11.195 4.71327 13.5688 3.97483 16 3.97483C18.4312 3.97483 20.805 4.71327 22.8071 6.09237C24.8093 7.47147 26.3453 9.42618 27.2119 11.6977C28.0784 13.9691 28.2346 16.4503 27.6597 18.8125C27.0848 21.1747 25.8059 23.3065 23.9925 24.9258Z" /></symbol></defs></svg>